<svg id="Camada_1" 
data-name="Camada 1" 
xmlns="http://www.w3.org/2000/svg" 
viewBox="0 0 256 256">
<defs>
<style>
.cls-1{
    fill: #D4D4D4;
}
</style>
</defs>
<path class="cls-1" d="M22.53,61.79H10.37V31.19A21.82,21.82,0,0,1,32.16,9.4H62.75V21.57H32.16a9.63,9.63,0,0,0-9.63,9.62Z"/>
<path class="cls-1" d="M249.16,61.79H237V31.19a9.63,9.63,0,0,0-9.63-9.62H196.78V9.4h30.59a21.82,21.82,0,0,1,21.79,21.79Z"/>
<path class="cls-1" d="M227.37,245.64H196.78V233.48h30.59a9.64,9.64,0,0,0,9.63-9.63V193.26h12.16v30.59A21.81,21.81,0,0,1,227.37,245.64Z"/>
<path class="cls-1" d="M62.75,245.64H32.16a21.81,21.81,0,0,1-21.79-21.79V193.26H22.53v30.59a9.64,9.64,0,0,0,9.63,9.63H62.75Z"/>
</svg>